Coordinates
version=1
nRows=60
nColumns=12
inDegrees=yes

Units are S.I. units (second, meters, Newtons, ...)
Angles are in degrees

endheader
time	SC_y	SC_z	SC_x	AC_y	AC_z	AC_x	GH_y	GH_z	GH_yy	EL_x	PS_y
       0.0              -20.66          18.07          1.647           34.0          -1.34          4.579          173.8          74.17         -20.57          78.95          94.63
   0.02467              -20.66          18.07          1.653          34.01         -1.342          4.577          173.8          74.16         -20.55          78.94          94.63
   0.04934              -20.66          18.07          1.659          34.01         -1.343          4.576          173.8          74.16         -20.54          78.93          94.63
   0.07401              -20.66          18.08          1.665          34.01         -1.345          4.574          173.8          74.16         -20.52          78.92          94.63
   0.09868              -20.66          18.08          1.672          34.02         -1.347          4.573          173.8          74.15          -20.5          78.91          94.63
    0.1234              -20.66          18.08           1.68          34.02         -1.349          4.571          173.8          74.15         -20.47           78.9          94.63
     0.148              -20.66          18.09          1.688          34.02         -1.351          4.569          173.8          74.15         -20.45          78.89          94.63
    0.1727              -20.66          18.09          1.696          34.03         -1.354          4.567          173.8          74.14         -20.42          78.88          94.63
    0.1974              -20.66           18.1          1.705          34.03         -1.356          4.565          173.8          74.14          -20.4          78.87          94.63
     0.222              -20.66           18.1          1.715          34.04         -1.359          4.563          173.8          74.14         -20.37          78.86          94.63
    0.2467              -20.66           18.1          1.725          34.04         -1.362           4.56          173.8          74.13         -20.34          78.84          94.63
    0.2714              -20.67          18.11          1.736          34.05         -1.365          4.558          173.8          74.13          -20.3          78.83          94.63
     0.296              -20.67          18.12          1.748          34.05         -1.368          4.555          173.8          74.12         -20.27          78.81          94.62
    0.3207              -20.67          18.12          1.761          34.06         -1.371          4.552          173.8          74.12         -20.23           78.8          94.62
    0.3454              -20.67          18.13          1.776          34.07         -1.375          4.548          173.8          74.11         -20.19          78.78          94.62
    0.3701              -20.67          18.14          1.791          34.07          -1.38          4.545          173.8           74.1         -20.14          78.76          94.62
    0.3947              -20.67          18.14          1.808          34.08         -1.384          4.541          173.8           74.1         -20.09          78.73          94.62
    0.4194              -20.67          18.15          1.826          34.09         -1.389          4.536          173.8          74.09         -20.03          78.71          94.62
    0.4441              -20.68          18.16          1.845           34.1         -1.394          4.531          173.7          74.08         -19.98          78.68          94.62
    0.4687              -20.68          18.17          1.867          34.11           -1.4          4.526          173.7          74.07         -19.91          78.66          94.62
    0.4934              -20.68          18.18          1.891          34.12         -1.407          4.521          173.7          74.06         -19.84          78.62          94.62
    0.5181              -20.68          18.19          1.917          34.13         -1.414          4.514          173.7          74.05         -19.76          78.59          94.62
    0.5428              -20.69          18.21          1.946          34.15         -1.422          4.508          173.7          74.04         -19.67          78.55          94.62
    0.5674              -20.69          18.22          1.978          34.16         -1.431            4.5          173.7          74.02         -19.58          78.51          94.62
    0.5921              -20.69          18.24          2.014          34.18          -1.44          4.491          173.7          74.01         -19.47          78.46          94.62
    0.6168               -20.7          18.26          2.053           34.2         -1.451          4.482          173.6          73.99         -19.35          78.41          94.62
    0.6414               -20.7          18.28          2.098          34.22         -1.463          4.471          173.6          73.97         -19.22          78.35          94.62
    0.6661              -20.71           18.3          2.148          34.25         -1.477          4.459          173.6          73.95         -19.07          78.28          94.62
    0.6908              -20.71          18.33          2.204          34.27         -1.493          4.446          173.6          73.93          -18.9          78.21          94.62
    0.7154              -20.72          18.36          2.269           34.3          -1.51           4.43          173.5           73.9          -18.7          78.12          94.62
    0.7401              -20.73          18.39          2.342          34.34          -1.53          4.413          173.5          73.87         -18.48          78.02          94.61
    0.7648              -20.74          18.43          2.426          34.38         -1.553          4.393          173.4          73.83         -18.23          77.91          94.61
    0.7895              -20.75          18.48          2.523          34.43          -1.58           4.37          173.4          73.79         -17.94          77.78          94.61
    0.8141              -20.76          18.53          2.636          34.48         -1.611          4.343          173.3          73.74          -17.6          77.63          94.61
    0.8388              -20.77          18.59          2.768          34.55         -1.647          4.311          173.3          73.69          -17.2          77.46          94.61
    0.8635              -20.79          18.67          2.924          34.62         -1.689          4.274          173.2          73.62         -16.73          77.25           94.6
    0.8881              -20.81          18.75          3.109          34.71          -1.74           4.23          173.1          73.54         -16.18          77.01           94.6
    0.9128              -20.83          18.86          3.331          34.82           -1.8          4.177          173.0          73.45         -15.51          76.71           94.6
    0.9375              -20.86          18.98          3.599          34.95         -1.874          4.113          172.8          73.33          -14.7          76.36          94.59
    0.9622              -20.89          19.14          3.927          35.11         -1.963          4.035          172.7          73.19         -13.72          75.92          94.59
    0.9868              -20.94          19.33          4.332           35.3         -2.074          3.938          172.4          73.02          -12.5          75.39          94.58
     1.011              -20.99          19.56          4.836          35.55         -2.212          3.818          172.2          72.81         -10.99          74.72          94.57
     1.036              -21.06          19.86          5.472          35.85         -2.386          3.666          171.8          72.53         -9.076          73.87          94.56
     1.061              -21.14          20.24          6.279          36.24         -2.607          3.474          171.4          72.19         -6.648           72.8          94.55
     1.086              -21.25          20.73          7.314          36.74         -2.889          3.227          170.9          71.75         -3.539          71.43          94.53
      1.11              -21.39          21.35          8.641          37.39         -3.252           2.91          170.2          71.18         0.4492          69.67          94.51
     1.135              -21.57          22.14          10.34          38.21         -3.715          2.506          169.3          70.46          5.544          67.42          94.48
      1.16              -21.79          23.14          12.47          39.24         -4.298          1.997          168.2          69.55          11.95          64.59          94.44
     1.184              -22.06          24.36          15.06          40.49         -5.008          1.377          166.8          68.44          19.76          61.14           94.4
     1.209              -22.38          25.77          18.07          41.95         -5.831         0.6591          165.2          67.16          28.81          57.15          94.35
     1.234              -22.72           27.3          21.33          43.53         -6.722        -0.1187          163.5          65.77           38.6          52.82          94.29
     1.258              -23.06          28.83          24.59           45.1         -7.613        -0.8965          161.8          64.38           48.4           48.5          94.23
     1.283              -23.38          30.25          27.61          46.56         -8.436         -1.615          160.2          63.09          57.45           44.5          94.18
     1.308              -23.65          31.46           30.2          47.82         -9.146         -2.235          158.8          61.99          65.26          41.06          94.14
     1.332              -23.87          32.46          32.33          48.85         -9.729         -2.743          157.7          61.08          71.67          38.23           94.1
     1.357              -24.05          33.26          34.03          49.67         -10.19         -3.148          156.8          60.35          76.76          35.98          94.07
     1.382              -24.19          33.88          35.36          50.31         -10.56         -3.464          156.1          59.79          80.75          34.22          94.05
     1.406               -24.3          34.37          36.39          50.81         -10.84         -3.711          155.6          59.35          83.86          32.85          94.03
     1.431              -24.38          34.75           37.2           51.2         -11.06         -3.904          155.1           59.0          86.29          31.78          94.02
     1.456              -24.45          35.04          37.83          51.51         -11.23         -4.055          154.8          58.73           88.2          30.93          94.01
